<?xml version="1.0" encoding="UTF-8"?>
<svg width="100%" height="100%" viewBox="0 0 1000 300" xmlns="http://www.w3.org/2000/svg">
    <!-- Gökyüzü gradient -->
    <defs>
        <linearGradient id="skyGradient" x1="0%" y1="0%" x2="0%" y2="100%">
            <stop offset="0%" style="stop-color:#D4A373;stop-opacity:1" />
            <stop offset="50%" style="stop-color:#E9C46A;stop-opacity:1" />
            <stop offset="100%" style="stop-color:#FEFAE0;stop-opacity:1" />
        </linearGradient>
        <radialGradient id="sunGradient" cx="50%" cy="50%" r="50%">
            <stop offset="0%" style="stop-color:#E9C46A;stop-opacity:1" />
            <stop offset="50%" style="stop-color:#D4A373;stop-opacity:0.8" />
            <stop offset="100%" style="stop-color:#FEFAE0;stop-opacity:0" />
        </radialGradient>
        <filter id="softGlow" x="-50%" y="-50%" width="200%" height="200%">
            <feGaussianBlur stdDeviation="3" result="blur" />
            <feComposite in="SourceGraphic" in2="blur" operator="over" />
        </filter>
        <!-- Kaktüs gölgelendirme -->
        <linearGradient id="cactusGradient" x1="0%" y1="0%" x2="100%" y2="0%">
            <stop offset="0%" style="stop-color:#2A5C45;stop-opacity:1" />
            <stop offset="100%" style="stop-color:#1A3C2D;stop-opacity:1" />
        </linearGradient>
    </defs>

    <!-- Gökyüzü -->
    <rect width="100%" height="40%" fill="url(#skyGradient)" />

    <!-- Güneş -->
    <circle cx="500" cy="60" r="60" fill="url(#sunGradient)" filter="url(#softGlow)" />

    <!-- Kum tepeleri -->
    <path d="M0,140 Q250,120 500,140 Q750,160 1000,140 L1000,300 L0,300 Z" fill="#D4A373" />
    <path d="M0,170 Q250,150 500,170 Q750,190 1000,170 L1000,300 L0,300 Z" fill="#E9C46A" opacity="0.7" />
    <path d="M0,200 Q250,180 500,200 Q750,220 1000,200 L1000,300 L0,300 Z" fill="#FEFAE0" opacity="0.5" />
    
    <!-- Kum dalgaları -->
    <path d="M0,280 Q100,270 200,280 Q300,290 400,280 Q500,270 600,280 Q700,290 800,280 Q900,270 1000,280" 
          stroke="#D4A373" stroke-width="1" fill="none" opacity="0.3" />
    <path d="M0,310 Q100,300 200,310 Q300,320 400,310 Q500,300 600,310 Q700,320 800,310 Q900,300 1000,310" 
          stroke="#E9C46A" stroke-width="1" fill="none" opacity="0.2" />
    
    <!-- Kaktüsler -->
    <g transform="translate(200,150) scale(0.2)">
        <path style="fill:#2A5C45;" d="M156.006,401.203V234.86v-46.969V54.385C156.006,24.35,180.356,0,210.391,0
            c30.044,0,54.393,24.35,54.393,54.385v346.818H156.006z"/>
        <path style="fill:#1A3C2D;" d="M314.126,24.72c-6.485,0-12.352,2.629-16.604,6.881c-4.252,4.244-6.88,10.119-6.88,16.604v47.998
            l27.856,5.159h-27.856h-25.858v46.969h25.858h23.484c12.97,0,23.484-10.514,23.484-23.484v-23.484V48.205
            C337.611,35.235,327.096,24.72,314.126,24.72z"/>
        <path style="fill:#2A5C45;" d="M156.006,401.203V234.86v-46.969V54.385C156.006,24.35,180.356,0,210.391,0
		c30.044,0,54.393,24.35,54.393,54.385v346.818H156.006z"/>
	<path style="fill:#1A3C2D;" d="M314.126,24.72c-6.485,0-12.352,2.629-16.604,6.881c-4.252,4.244-6.88,10.119-6.88,16.604v47.998
		l27.856,5.159h-27.856h-25.858v46.969h25.858h23.484c12.97,0,23.484-10.514,23.484-23.484v-23.484V48.205
		C337.611,35.235,327.096,24.72,314.126,24.72z"/>
	<path style="fill:#F99C38;" d="M327.395,411.203h-234l0,0c15.967-12.939,35.895-20,56.446-20h121.107
		C291.501,391.203,311.428,398.264,327.395,411.203L327.395,411.203z"/>
	<path style="fill:#1A3C2D;" d="M173.72,187.891h-48.226l-4.928,29.495v-29.495v-9.502v-43.652
		c0-12.971-10.515-23.487-23.487-23.487h0c-12.971,0-23.487,10.515-23.487,23.487v53.154v23.487
		c0,12.971,10.516,23.487,23.487,23.487h23.487h53.154c12.971,0,23.487-10.515,23.487-23.487S186.692,187.891,173.72,187.891z"/>
	<path style="fill:#1A3C2D;" d="M192.034,66.393c-1.32,0-2.601-0.53-3.54-1.46c-0.931-0.93-1.46-2.22-1.46-3.54
		c0-1.32,0.529-2.61,1.46-3.54c0.939-0.92,2.22-1.46,3.54-1.46c1.31,0,2.6,0.54,3.529,1.46c0.94,0.93,1.471,2.22,1.471,3.54
		c0,1.32-0.53,2.61-1.471,3.54C194.634,65.863,193.353,66.393,192.034,66.393z"/>
	<path style="fill:#1A3C2D;" d="M243.034,54.393c-1.32,0-2.61-0.53-3.54-1.46c-0.931-0.93-1.46-2.22-1.46-3.54
		c0-1.31,0.529-2.6,1.46-3.53c0.93-0.93,2.22-1.47,3.54-1.47c1.31,0,2.6,0.54,3.529,1.47c0.931,0.93,1.471,2.22,1.471,3.53
		c0,1.32-0.54,2.61-1.471,3.54C245.634,53.863,244.344,54.393,243.034,54.393z"/>
	<path style="fill:#1A3C2D;" d="M220.534,120.393c-1.32,0-2.61-0.54-3.54-1.47c-0.931-0.93-1.46-2.21-1.46-3.53
		c0-1.32,0.529-2.61,1.46-3.54c0.93-0.93,2.22-1.46,3.54-1.46c1.31,0,2.6,0.53,3.529,1.46c0.931,0.93,1.471,2.22,1.471,3.54
		c0,1.32-0.54,2.6-1.471,3.53C223.134,119.853,221.844,120.393,220.534,120.393z"/>
	<path style="fill:#1A3C2D;" d="M195.034,141.393c-1.32,0-2.61-0.54-3.54-1.47c-0.931-0.93-1.46-2.22-1.46-3.53
		c0-1.32,0.529-2.61,1.46-3.54c0.93-0.93,2.22-1.46,3.54-1.46c1.31,0,2.6,0.53,3.54,1.46c0.92,0.93,1.46,2.22,1.46,3.54
		c0,1.31-0.54,2.6-1.46,3.53C197.634,140.853,196.353,141.393,195.034,141.393z"/>
	<path style="fill:#1A3C2D;" d="M225.034,258.383c-1.32,0-2.61-0.53-3.54-1.46c-0.931-0.93-1.46-2.22-1.46-3.54
		c0-1.32,0.529-2.6,1.46-3.53c0.93-0.93,2.22-1.47,3.54-1.47c1.319,0,2.6,0.54,3.529,1.47c0.931,0.93,1.471,2.21,1.471,3.53
		c0,1.32-0.54,2.61-1.471,3.54C227.634,257.853,226.353,258.383,225.034,258.383z"/>
	<path style="fill:#1A3C2D;" d="M224.965,370.663c-1.32,0-2.61-0.53-3.54-1.46c-0.931-0.93-1.46-2.22-1.46-3.54
		c0-1.32,0.529-2.6,1.46-3.53c0.93-0.93,2.22-1.47,3.54-1.47c1.319,0,2.6,0.54,3.529,1.47c0.931,0.93,1.471,2.21,1.471,3.53
		c0,1.32-0.54,2.61-1.471,3.54C227.564,370.133,226.284,370.663,224.965,370.663z"/>
	<path style="fill:#F9E17A;" d="M93.044,172.893c-1.32,0-2.61-0.54-3.54-1.47c-0.93-0.93-1.47-2.22-1.47-3.53
		c0-1.32,0.54-2.61,1.47-3.54s2.22-1.46,3.54-1.46c1.31,0,2.6,0.53,3.53,1.46c0.93,0.93,1.47,2.22,1.47,3.54
		c0,1.31-0.54,2.6-1.47,3.53C95.644,172.353,94.353,172.893,93.044,172.893z"/>
	<path style="fill:#F9E17A;" d="M146.034,224.673c-1.32,0-2.61-0.54-3.54-1.47c-0.93-0.93-1.47-2.22-1.47-3.53
		c0-1.32,0.54-2.61,1.47-3.54s2.22-1.46,3.54-1.46c1.31,0,2.6,0.53,3.53,1.46c0.93,0.93,1.47,2.22,1.47,3.54
		c0,1.31-0.54,2.6-1.47,3.53C148.634,224.133,147.344,224.673,146.034,224.673z"/>
	<path style="fill:#F9E17A;" d="M108.034,148.673c-1.32,0-2.61-0.54-3.54-1.47c-0.93-0.93-1.47-2.22-1.47-3.53
		c0-1.32,0.54-2.61,1.47-3.54s2.22-1.46,3.54-1.46c1.31,0,2.6,0.53,3.53,1.46c0.93,0.93,1.47,2.22,1.47,3.54
		c0,1.31-0.54,2.6-1.47,3.53C110.634,148.133,109.344,148.673,108.034,148.673z"/>
	<path style="fill:#F9E17A;" d="M325.523,73.893c-1.31,0-2.6-0.53-3.529-1.46c-0.931-0.93-1.471-2.22-1.471-3.54
		c0-1.32,0.54-2.6,1.471-3.53c0.93-0.94,2.22-1.47,3.529-1.47c1.32,0,2.61,0.53,3.54,1.47c0.931,0.93,1.46,2.22,1.46,3.53
		c0,1.32-0.529,2.61-1.46,3.54C328.134,73.363,326.844,73.893,325.523,73.893z"/>
	<path style="fill:#F9E17A;" d="M311.494,54.203c-1.31,0-2.6-0.53-3.529-1.46c-0.931-0.93-1.471-2.22-1.471-3.54
		c0-1.32,0.54-2.6,1.471-3.53c0.93-0.94,2.22-1.47,3.529-1.47c1.32,0,2.61,0.53,3.54,1.47c0.931,0.93,1.46,2.22,1.46,3.53
		c0,1.32-0.529,2.61-1.46,3.54C314.104,53.673,312.814,54.203,311.494,54.203z"/>
	<path style="fill:#1A3C2D;" d="M193.534,325.883c-1.32,0-2.61-0.54-3.54-1.47c-0.931-0.93-1.46-2.22-1.46-3.53
		c0-1.32,0.529-2.61,1.46-3.54c0.93-0.93,2.22-1.46,3.54-1.46c1.319,0,2.6,0.53,3.54,1.46c0.93,0.94,1.46,2.22,1.46,3.54
		c0,1.31-0.53,2.6-1.46,3.53C196.134,325.343,194.844,325.883,193.534,325.883z"/>
	<path style="fill:#1A3C2D;" d="M216.034,337.883c-1.32,0-2.61-0.54-3.54-1.47c-0.931-0.93-1.46-2.21-1.46-3.53
		c0-1.32,0.529-2.61,1.46-3.54c0.93-0.93,2.22-1.46,3.54-1.46c1.319,0,2.6,0.53,3.529,1.46c0.931,0.93,1.471,2.22,1.471,3.54
		c0,1.31-0.54,2.6-1.471,3.53C218.644,337.343,217.353,337.883,216.034,337.883z"/>
	<path style="fill:#1A3C2D;" d="M168.965,352.673c-1.32,0-2.61-0.54-3.54-1.47c-0.931-0.93-1.46-2.21-1.46-3.53
		c0-1.32,0.529-2.61,1.46-3.54c0.93-0.93,2.22-1.46,3.54-1.46c1.319,0,2.6,0.53,3.529,1.46c0.931,0.93,1.471,2.22,1.471,3.54
		c0,1.31-0.54,2.6-1.471,3.53C171.574,352.133,170.284,352.673,168.965,352.673z"/>
	<path style="fill:#1A3C2D;" d="M192.034,370.883c-1.32,0-2.601-0.54-3.54-1.47c-0.931-0.93-1.46-2.22-1.46-3.53
		c0-1.32,0.529-2.61,1.46-3.54c0.939-0.93,2.22-1.47,3.54-1.47c1.319,0,2.6,0.54,3.529,1.47c0.94,0.93,1.471,2.22,1.471,3.54
		c0,1.31-0.53,2.6-1.471,3.53C194.634,370.343,193.353,370.883,192.034,370.883z"/>
    </g>

    <g transform="translate(800,170) scale(0.15)">
        <path style="fill:#2A5C45;" d="M156.006,401.203V234.86v-46.969V54.385C156.006,24.35,180.356,0,210.391,0
            c30.044,0,54.393,24.35,54.393,54.385v346.818H156.006z"/>
        <path style="fill:#1A3C2D;" d="M314.126,24.72c-6.485,0-12.352,2.629-16.604,6.881c-4.252,4.244-6.88,10.119-6.88,16.604v47.998
            l27.856,5.159h-27.856h-25.858v46.969h25.858h23.484c12.97,0,23.484-10.514,23.484-23.484v-23.484V48.205
            C337.611,35.235,327.096,24.72,314.126,24.72z"/>
        <path style="fill:#2A5C45;" d="M156.006,401.203V234.86v-46.969V54.385C156.006,24.35,180.356,0,210.391,0
		c30.044,0,54.393,24.35,54.393,54.385v346.818H156.006z"/>
	<path style="fill:#1A3C2D;" d="M314.126,24.72c-6.485,0-12.352,2.629-16.604,6.881c-4.252,4.244-6.88,10.119-6.88,16.604v47.998
		l27.856,5.159h-27.856h-25.858v46.969h25.858h23.484c12.97,0,23.484-10.514,23.484-23.484v-23.484V48.205
		C337.611,35.235,327.096,24.72,314.126,24.72z"/>
	<path style="fill:#F99C38;" d="M327.395,411.203h-234l0,0c15.967-12.939,35.895-20,56.446-20h121.107
		C291.501,391.203,311.428,398.264,327.395,411.203L327.395,411.203z"/>
	<path style="fill:#1A3C2D;" d="M173.72,187.891h-48.226l-4.928,29.495v-29.495v-9.502v-43.652
		c0-12.971-10.515-23.487-23.487-23.487h0c-12.971,0-23.487,10.515-23.487,23.487v53.154v23.487
		c0,12.971,10.516,23.487,23.487,23.487h23.487h53.154c12.971,0,23.487-10.515,23.487-23.487S186.692,187.891,173.72,187.891z"/>
	<path style="fill:#1A3C2D;" d="M192.034,66.393c-1.32,0-2.601-0.53-3.54-1.46c-0.931-0.93-1.46-2.22-1.46-3.54
		c0-1.32,0.529-2.61,1.46-3.54c0.939-0.92,2.22-1.46,3.54-1.46c1.31,0,2.6,0.54,3.529,1.46c0.94,0.93,1.471,2.22,1.471,3.54
		c0,1.32-0.53,2.61-1.471,3.54C194.634,65.863,193.353,66.393,192.034,66.393z"/>
	<path style="fill:#1A3C2D;" d="M243.034,54.393c-1.32,0-2.61-0.53-3.54-1.46c-0.931-0.93-1.46-2.22-1.46-3.54
		c0-1.31,0.529-2.6,1.46-3.53c0.93-0.93,2.22-1.47,3.54-1.47c1.31,0,2.6,0.54,3.529,1.47c0.931,0.93,1.471,2.22,1.471,3.53
		c0,1.32-0.54,2.61-1.471,3.54C245.634,53.863,244.344,54.393,243.034,54.393z"/>
	<path style="fill:#1A3C2D;" d="M220.534,120.393c-1.32,0-2.61-0.54-3.54-1.47c-0.931-0.93-1.46-2.21-1.46-3.53
		c0-1.32,0.529-2.61,1.46-3.54c0.93-0.93,2.22-1.46,3.54-1.46c1.31,0,2.6,0.53,3.529,1.46c0.931,0.93,1.471,2.22,1.471,3.54
		c0,1.32-0.54,2.6-1.471,3.53C223.134,119.853,221.844,120.393,220.534,120.393z"/>
	<path style="fill:#1A3C2D;" d="M195.034,141.393c-1.32,0-2.61-0.54-3.54-1.47c-0.931-0.93-1.46-2.22-1.46-3.53
		c0-1.32,0.529-2.61,1.46-3.54c0.93-0.93,2.22-1.46,3.54-1.46c1.31,0,2.6,0.53,3.54,1.46c0.92,0.93,1.46,2.22,1.46,3.54
		c0,1.31-0.54,2.6-1.46,3.53C197.634,140.853,196.353,141.393,195.034,141.393z"/>
	<path style="fill:#1A3C2D;" d="M225.034,258.383c-1.32,0-2.61-0.53-3.54-1.46c-0.931-0.93-1.46-2.22-1.46-3.54
		c0-1.32,0.529-2.6,1.46-3.53c0.93-0.93,2.22-1.47,3.54-1.47c1.319,0,2.6,0.54,3.529,1.47c0.931,0.93,1.471,2.21,1.471,3.53
		c0,1.32-0.54,2.61-1.471,3.54C227.634,257.853,226.353,258.383,225.034,258.383z"/>
	<path style="fill:#1A3C2D;" d="M224.965,370.663c-1.32,0-2.61-0.53-3.54-1.46c-0.931-0.93-1.46-2.22-1.46-3.54
		c0-1.32,0.529-2.6,1.46-3.53c0.93-0.93,2.22-1.47,3.54-1.47c1.319,0,2.6,0.54,3.529,1.47c0.931,0.93,1.471,2.21,1.471,3.53
		c0,1.32-0.54,2.61-1.471,3.54C227.564,370.133,226.284,370.663,224.965,370.663z"/>
	<path style="fill:#F9E17A;" d="M93.044,172.893c-1.32,0-2.61-0.54-3.54-1.47c-0.93-0.93-1.47-2.22-1.47-3.53
		c0-1.32,0.54-2.61,1.47-3.54s2.22-1.46,3.54-1.46c1.31,0,2.6,0.53,3.53,1.46c0.93,0.93,1.47,2.22,1.47,3.54
		c0,1.31-0.54,2.6-1.47,3.53C95.644,172.353,94.353,172.893,93.044,172.893z"/>
	<path style="fill:#F9E17A;" d="M146.034,224.673c-1.32,0-2.61-0.54-3.54-1.47c-0.93-0.93-1.47-2.22-1.47-3.53
		c0-1.32,0.54-2.61,1.47-3.54s2.22-1.46,3.54-1.46c1.31,0,2.6,0.53,3.53,1.46c0.93,0.93,1.47,2.22,1.47,3.54
		c0,1.31-0.54,2.6-1.47,3.53C148.634,224.133,147.344,224.673,146.034,224.673z"/>
	<path style="fill:#F9E17A;" d="M108.034,148.673c-1.32,0-2.61-0.54-3.54-1.47c-0.93-0.93-1.47-2.22-1.47-3.53
		c0-1.32,0.54-2.61,1.47-3.54s2.22-1.46,3.54-1.46c1.31,0,2.6,0.53,3.53,1.46c0.93,0.93,1.47,2.22,1.47,3.54
		c0,1.31-0.54,2.6-1.47,3.53C110.634,148.133,109.344,148.673,108.034,148.673z"/>
	<path style="fill:#F9E17A;" d="M325.523,73.893c-1.31,0-2.6-0.53-3.529-1.46c-0.931-0.93-1.471-2.22-1.471-3.54
		c0-1.32,0.54-2.6,1.471-3.53c0.93-0.94,2.22-1.47,3.529-1.47c1.32,0,2.61,0.53,3.54,1.47c0.931,0.93,1.46,2.22,1.46,3.53
		c0,1.32-0.529,2.61-1.46,3.54C328.134,73.363,326.844,73.893,325.523,73.893z"/>
	<path style="fill:#F9E17A;" d="M311.494,54.203c-1.31,0-2.6-0.53-3.529-1.46c-0.931-0.93-1.471-2.22-1.471-3.54
		c0-1.32,0.54-2.6,1.471-3.53c0.93-0.94,2.22-1.47,3.529-1.47c1.32,0,2.61,0.53,3.54,1.47c0.931,0.93,1.46,2.22,1.46,3.53
		c0,1.32-0.529,2.61-1.46,3.54C314.104,53.673,312.814,54.203,311.494,54.203z"/>
	<path style="fill:#1A3C2D;" d="M193.534,325.883c-1.32,0-2.61-0.54-3.54-1.47c-0.931-0.93-1.46-2.22-1.46-3.53
		c0-1.32,0.529-2.61,1.46-3.54c0.93-0.93,2.22-1.46,3.54-1.46c1.319,0,2.6,0.53,3.54,1.46c0.93,0.94,1.46,2.22,1.46,3.54
		c0,1.31-0.53,2.6-1.46,3.53C196.134,325.343,194.844,325.883,193.534,325.883z"/>
	<path style="fill:#1A3C2D;" d="M216.034,337.883c-1.32,0-2.61-0.54-3.54-1.47c-0.931-0.93-1.46-2.21-1.46-3.53
		c0-1.32,0.529-2.61,1.46-3.54c0.93-0.93,2.22-1.46,3.54-1.46c1.319,0,2.6,0.53,3.529,1.46c0.931,0.93,1.471,2.22,1.471,3.54
		c0,1.31-0.54,2.6-1.471,3.53C218.644,337.343,217.353,337.883,216.034,337.883z"/>
	<path style="fill:#1A3C2D;" d="M168.965,352.673c-1.32,0-2.61-0.54-3.54-1.47c-0.931-0.93-1.46-2.21-1.46-3.53
		c0-1.32,0.529-2.61,1.46-3.54c0.93-0.93,2.22-1.46,3.54-1.46c1.319,0,2.6,0.53,3.529,1.46c0.931,0.93,1.471,2.22,1.471,3.54
		c0,1.31-0.54,2.6-1.471,3.53C171.574,352.133,170.284,352.673,168.965,352.673z"/>
	<path style="fill:#1A3C2D;" d="M192.034,370.883c-1.32,0-2.601-0.54-3.54-1.47c-0.931-0.93-1.46-2.22-1.46-3.53
		c0-1.32,0.529-2.61,1.46-3.54c0.939-0.93,2.22-1.47,3.54-1.47c1.319,0,2.6,0.54,3.529,1.47c0.94,0.93,1.471,2.22,1.471,3.54
		c0,1.31-0.53,2.6-1.471,3.53C194.634,370.343,193.353,370.883,192.034,370.883z"/>
    </g>

    <!-- Solucan -->
    <g transform="translate(500,80) scale(0.4)">
        <!-- Ana gövde -->
        <path d="M335.307,307.778c0-21.087-57.534-29.979-92.206-33.417c-4.288-20.988-16.997-47.523-54.962-60.794
            c-22.798-7.968-36.349-20.409-44.412-31.947c-0.021-0.031-0.042-0.062-0.068-0.106c-5.005-7.196-7.897-14.044-9.525-19.251
            c-4.688-14.956-2.867-27.226,0.812-32.303c3.553-4.903,7.73-7.283,12.767-7.283c8.134,0,18.629,6.391,27.934,16.911
            c8.388,10.446,19.669,18.008,32.284,21.885c0.011,0.005,0.021,0.016,0.031,0.021c0.021,0.005,0.042,0.005,0.062,0.011
            c2.415,0.735,4.861,1.385,7.36,1.848c22.767,4.168,47.729-4.438,63.224-21.596c11.308-12.542,16.646-28.232,15.008-44.176
            c-0.95-9.132-3.196-17.906-6.692-26.071c-2.908-6.767-6.614-12.966-11.307-18.749L257.474,33.52
            c-0.052-0.047-0.116-0.081-0.157-0.128c-0.104-0.103-0.221-0.173-0.336-0.262c-0.23-0.189-0.431-0.399-0.698-0.548
            c-26.746-15.726-50.899-25.557-73.215-29.914c-0.067-0.017-0.12-0.066-0.188-0.076c-0.043-0.005-0.085,0.01-0.111,0.005
            C174.087,0.918,165.654,0,157.503,0c-41.578,0-69.1,22.339-90.537,44.2c-21.066,21.476-33.216,67.612-29.543,112.191
            c1.646,20.011,6.38,37.744,13.772,52.473c0.055,0.083,0.081,0.169,0.134,0.263c6.569,13.008,15.212,23.643,25.711,31.329
            c17.491,12.767,26.714,24.021,31.371,33.254c-37.998,3.313-99.204,12.073-99.204,34.068c0,29.057,106.661,36.736,163.053,36.736
            C228.623,344.514,335.307,336.834,335.307,307.778z" 
            fill="#1A1A1A" />
        
        <!-- Ağız katmanları -->
        <path d="M185,100 C185,55 220,35 255,100 C255,145 220,165 185,140 Z" fill="#000000" />
        <path d="M190,105 C190,70 220,55 250,105 C250,140 220,155 190,135 Z" fill="#111111" />
        <path d="M195,110 C195,80 220,70 245,110 C245,135 220,145 195,130 Z" fill="#222222" />
        <path d="M200,115 C200,90 220,85 240,115 C240,130 220,135 200,125 Z" fill="#333333" />
        <path d="M205,120 C205,100 220,100 235,120 C235,125 220,125 205,120 Z" fill="#444444" />
        <path d="M210,122 C210,110 220,110 230,122 C230,122 220,122 210,122 Z" fill="#555555" />
    </g>
</svg> 