<svg version="1.1" id="Layer_1" xmlns="http://www.w3.org/2000/svg" xmlns:xlink="http://www.w3.org/1999/xlink" x="0px" y="0px"
	 width="100%" viewBox="0 0 512 512" enable-background="new 0 0 512 512" xml:space="preserve">
<path fill="#EECB88" opacity="1.000000" stroke="none" 
	d="
M1.000001,229.000000 
	C1.000000,153.034454 1.000000,77.068909 1.000000,1.051682 
	C171.554810,1.051682 342.109650,1.051682 513.000000,1.051682 
	C513.000000,74.687759 513.000000,148.376038 512.640381,222.601898 
	C494.503265,230.818283 477.769836,241.116135 457.913757,244.614426 
	C456.667267,244.740479 455.844421,244.895508 454.676819,245.010376 
	C453.210724,245.133865 452.089478,245.297546 450.503418,245.525665 
	C444.706390,245.759201 439.374146,245.928284 433.667908,246.025269 
	C432.534851,245.962662 431.775726,245.972137 430.592377,245.887787 
	C428.999084,245.747955 427.830048,245.701981 426.347473,245.459366 
	C416.883636,243.572052 407.711639,241.990051 398.587311,240.169052 
	C376.456024,235.752197 354.221436,232.888748 331.695435,236.523788 
	C304.766968,240.869263 281.513123,253.582932 259.604584,269.088806 
	C251.342667,274.936188 243.381882,281.209106 234.811783,287.195862 
	C226.073624,286.265778 217.764099,285.727386 209.548950,284.537567 
	C176.112579,279.695038 145.906097,265.908417 116.069153,250.898712 
	C102.276176,243.960052 88.138390,237.505585 73.659782,232.184265 
	C57.161011,226.120438 39.913536,223.261963 22.170912,225.942825 
	C15.120922,227.008087 8.057376,227.983627 1.000001,229.000000 
M255.608459,203.002396 
	C255.787338,202.975876 255.966232,202.949371 256.560181,202.971878 
	C256.560181,202.971878 256.961731,202.855789 257.891388,203.016647 
	C264.092224,203.016647 270.293091,203.016647 276.258789,203.016647 
	C277.447632,199.104919 276.277832,197.854980 272.865753,198.045135 
	C268.959991,198.262817 265.032837,198.095581 260.319550,198.095581 
	C261.034698,195.634216 261.555695,193.841110 262.975739,192.018829 
	C264.743927,192.014755 266.560852,192.265472 268.267456,191.939270 
	C270.206390,191.568634 272.046692,190.682144 273.991852,189.335266 
	C273.952972,188.880066 273.914093,188.424881 273.690491,187.187820 
	C269.786652,186.819565 265.882782,186.451294 261.534821,185.392914 
	C261.245361,183.727783 260.955902,182.062637 260.774078,181.016739 
	C266.377258,180.584259 271.421112,180.194946 276.462524,179.805817 
	C276.462524,177.869751 276.462524,176.621582 276.462524,175.134888 
	C269.793060,175.134888 263.378387,175.134888 256.558838,175.024445 
	C256.558838,175.024445 256.142853,175.080002 255.626312,175.004578 
	C255.452301,175.002167 255.278305,174.999771 254.567764,175.639999 
	C254.377396,181.385620 254.025040,187.132172 254.058136,192.876511 
	C254.077591,196.253860 254.709503,199.627670 255.608459,203.002396 
M332.425934,202.362885 
	C332.316711,193.596390 332.207489,184.829895 331.819489,175.589371 
	C331.508087,175.423172 331.196686,175.256958 330.448547,175.018631 
	C330.448547,175.018631 330.023407,175.141953 329.270660,175.001221 
	C328.510071,175.050385 327.749451,175.099548 326.148041,175.394928 
	C326.058807,183.943588 325.946808,192.492218 325.929016,201.041031 
	C325.927765,201.642838 326.622131,202.246094 327.742371,203.003693 
	C328.502289,202.950027 329.262177,202.896347 330.432983,202.965210 
	C330.432983,202.965210 330.857056,202.902664 331.364960,202.993332 
	C331.536926,202.995026 331.708923,202.996704 332.425934,202.362885 
M118.060768,156.609329 
	C118.060768,156.609329 118.088737,156.208694 118.533661,156.077240 
	C118.533661,156.077240 118.949562,155.871658 119.832413,155.986343 
	C146.347870,155.060959 161.515289,135.792816 156.347000,107.626564 
	C153.214645,90.555893 137.146423,79.206177 117.053543,78.957146 
	C105.381943,79.018959 93.710342,79.080780 81.604530,79.036369 
	C81.604530,79.036369 81.157509,79.036270 80.596184,79.649345 
	C80.401993,80.443848 80.039185,81.238121 80.038139,82.032875 
	C80.007355,105.444717 79.996590,128.856644 80.056587,152.268372 
	C80.059769,153.507141 80.709999,154.744263 81.503288,156.105942 
	C81.503288,156.105942 81.953049,156.003799 81.776047,156.067810 
	C81.776047,156.067810 81.823570,156.249939 81.832397,156.678711 
	C81.832397,156.678711 81.988342,157.078049 82.671104,157.545959 
	C93.037613,157.695419 103.403877,157.884399 113.770912,157.947678 
	C115.172066,157.956223 116.577080,157.333313 118.060768,156.609329 
M236.553864,78.968956 
	C236.376007,78.981476 236.198151,78.993988 235.514999,79.663414 
	C235.348343,93.328285 235.157074,106.992958 235.051483,120.658302 
	C235.040421,122.088615 235.535507,123.522850 235.836258,125.691116 
	C232.648071,135.854828 223.146347,143.038315 213.818497,142.336960 
	C203.566116,141.566101 195.397461,134.287903 193.597626,123.249535 
	C193.712280,109.240913 193.841995,95.232353 193.899261,81.223495 
	C193.902283,80.485489 193.291199,79.744972 192.470062,78.928268 
	C192.306763,78.964600 192.143448,79.000931 191.063095,78.893753 
	C186.714996,78.959618 182.366898,79.025475 177.562805,78.972908 
	C177.562805,78.972908 177.093689,79.016235 176.557007,79.650917 
	C176.384460,80.283951 176.062988,80.916573 176.061234,81.550079 
	C176.021805,95.820221 175.986603,110.090630 176.062714,124.360382 
	C176.069092,125.555016 176.868881,126.745422 177.686096,128.553864 
	C180.693222,143.162186 189.219482,152.889740 203.832550,156.126419 
	C209.927460,157.476364 216.547760,157.468002 222.809326,156.854340 
	C239.102585,155.257492 250.835220,142.821396 251.997208,126.051575 
	C251.997208,110.387596 251.997208,94.723618 251.997208,78.885994 
	C248.547256,78.885994 245.741104,78.861664 242.935638,78.895241 
	C241.283310,78.915009 239.632080,79.026649 237.540298,78.946121 
	C237.540298,78.946121 237.084167,79.038719 236.553864,78.968956 
M287.682922,176.639984 
	C287.463531,184.384232 287.193115,192.127777 287.086823,199.873581 
	C287.072968,200.886398 287.901978,201.910782 288.897583,202.894592 
	C289.264191,202.880646 289.630768,202.866684 290.865021,202.992798 
	C291.575531,202.193649 292.810364,201.448196 292.898712,200.585358 
	C293.168762,197.947372 292.825165,195.248520 293.065704,192.604782 
	C293.202515,191.101120 294.014038,189.658844 294.521698,188.188934 
	C295.827637,188.972794 297.431854,189.496841 298.383514,190.589310 
	C301.224121,193.850189 303.666107,197.463669 306.570251,200.661102 
	C307.601746,201.796799 309.514069,202.132507 311.583679,202.963394 
	C311.773407,202.988663 311.963104,203.013931 312.820099,202.642487 
	C313.169312,202.113098 313.816589,201.587265 313.822937,201.053787 
	C313.915955,193.250702 313.982941,185.445740 313.870453,177.643890 
	C313.857483,176.743668 312.732605,175.859451 311.567627,175.024246 
	C311.386017,175.065094 311.204376,175.105927 310.194611,175.002823 
	C309.130615,176.286118 307.321228,177.477142 307.148682,178.870789 
	C306.709686,182.416931 307.002625,186.053696 307.002625,191.012802 
	C304.892029,189.226715 303.583557,188.404053 302.647552,187.273132 
	C299.996277,184.069901 297.668701,180.582291 294.855408,177.537674 
	C293.709930,176.298004 291.640167,175.912430 289.471436,175.071594 
	C289.075897,175.402054 288.680359,175.732513 287.682922,176.639984 
M290.002319,155.982712 
	C290.002319,155.982712 289.939209,155.998535 290.466858,155.353729 
	C290.644470,153.556137 290.969604,151.759064 290.976013,149.960861 
	C291.020386,137.511307 290.938812,125.060936 291.056763,112.612328 
	C291.076263,110.555878 291.876038,108.506821 292.331329,106.744057 
	C292.331329,106.744057 292.042053,106.766777 292.454681,107.243057 
	C292.803864,107.479324 293.153046,107.715591 293.996948,108.341385 
	C305.218719,122.464645 316.408783,136.613281 327.675659,150.700424 
	C333.276978,157.703857 342.353546,157.904648 347.301331,150.557800 
	C347.529602,149.267242 347.954132,147.977097 347.956848,146.686066 
	C348.001587,125.539764 348.012726,104.393303 347.952545,83.247093 
	C347.948517,81.832817 347.313568,80.420326 346.472839,78.938179 
	C346.309509,78.977341 346.146149,79.016510 345.053802,78.911263 
	C340.462799,78.913445 335.871765,78.915627 330.752777,79.427864 
	C330.504089,81.201164 330.049988,82.973297 330.039917,84.747948 
	C329.972839,96.574432 330.074860,108.402390 329.925201,120.227386 
	C329.899994,122.218987 328.921295,124.198524 327.895660,125.784431 
	C316.656769,111.555397 305.457916,97.294319 294.126526,83.139320 
	C292.763885,81.437088 290.798096,79.328644 288.912537,79.107407 
	C284.043213,78.536072 279.062225,78.916000 273.747375,78.916000 
	C273.747375,103.542961 273.747314,127.648720 273.747833,151.754486 
	C273.747864,152.586853 273.426178,153.658829 273.823853,154.203186 
	C274.733917,155.448929 275.942322,157.293457 277.126831,157.368973 
	C280.691650,157.596252 284.303040,157.093811 288.302307,157.227371 
	C288.859100,156.793167 289.415894,156.358963 290.002319,155.982712 
M368.060608,175.116501 
	C367.708771,175.129150 367.356964,175.141815 366.179474,175.021194 
	C365.118958,176.305252 363.318695,177.496353 363.143341,178.891647 
	C362.703186,182.394150 362.997894,185.988998 362.997894,190.852859 
	C360.857788,188.914612 359.578400,187.998108 358.604553,186.827393 
	C355.948853,183.634781 353.602112,180.163574 350.750397,177.166809 
	C349.698303,176.061203 347.576660,175.973343 345.242401,176.045166 
	C345.119781,184.545731 344.980988,193.046173 344.922180,201.547195 
	C344.919220,201.974792 345.608521,202.407181 346.842590,202.995056 
	C349.141876,203.379181 350.189056,202.581680 350.033173,200.084778 
	C349.857727,197.273987 349.870117,194.436066 350.044189,191.625015 
	C350.138275,190.106079 350.740295,188.618576 351.355225,186.141830 
	C355.661987,191.639740 359.022064,196.159393 362.668762,200.434586 
	C363.674744,201.613983 365.535126,202.064606 367.546356,202.966660 
	C367.914368,202.953644 368.282349,202.940628 369.263702,202.358978 
	C369.435120,193.780777 369.627350,185.202835 369.726074,176.623779 
	C369.731995,176.111633 368.989716,175.590851 368.060608,175.116501 
M223.104782,175.035416 
	C222.410385,175.671860 221.121567,176.299026 221.111450,176.946152 
	C220.976913,185.560287 221.021576,194.177216 221.021576,203.102844 
	C222.983261,202.935440 224.445374,202.810654 226.285004,202.047974 
	C226.461594,198.051208 225.484879,193.588104 230.739197,191.439362 
	C232.690765,194.078842 234.815964,196.646103 236.592987,199.435181 
	C238.759094,202.834915 241.502518,203.874252 245.838882,202.381195 
	C241.895355,197.258240 238.187210,192.441071 233.246994,186.023346 
	C237.441605,182.884857 241.635239,179.747101 245.828857,176.609344 
	C235.469879,173.066818 234.298492,184.116058 226.547348,186.268250 
	C226.345444,183.494339 226.350662,180.985580 225.906677,178.558990 
	C225.685989,177.352890 224.641022,176.297577 223.104782,175.035416 
M420.270996,109.409058 
	C410.158142,109.273064 400.040894,109.257309 389.936737,108.885033 
	C388.213196,108.821533 386.545898,107.232224 384.762939,106.166061 
	C384.762939,106.166061 384.931732,106.053902 385.540466,105.660278 
	C386.001099,104.591049 386.461731,103.521820 387.122803,101.849251 
	C390.730347,97.236603 395.804749,95.340767 402.187683,94.233498 
	C412.116394,94.118515 422.045074,94.003540 432.750214,93.532692 
	C432.496704,88.716942 432.243164,83.901199 431.064728,78.925415 
	C420.721375,78.999588 410.377991,79.073753 399.206024,79.036171 
	C384.782135,80.665077 373.620819,87.319626 367.932587,100.997597 
	C357.467926,126.161057 371.023376,150.756760 398.552032,157.038605 
	C399.293243,157.339874 400.032623,157.898193 400.775940,157.903488 
	C410.490509,157.972839 420.206024,158.004059 429.920105,157.914597 
	C430.925110,157.905334 431.922455,157.060760 433.108765,155.734253 
	C433.108765,150.832474 433.108765,145.930710 433.108765,140.844223 
	C426.805237,140.844223 421.167938,140.947357 415.536133,140.816010 
	C409.577240,140.677002 403.525665,140.895569 397.690918,139.911911 
	C389.260376,138.490677 384.457184,132.540649 384.654480,124.785461 
	C397.685242,124.785461 410.731171,124.785461 424.059662,124.785461 
	C424.059662,120.394119 424.255707,116.411118 423.918732,112.473747 
	C423.836761,111.516403 422.001404,110.709137 420.270996,109.409058 
M148.826157,192.054276 
	C148.437744,192.676147 148.049332,193.298019 147.465210,194.233215 
	C145.796326,189.239197 143.994186,184.747360 142.831757,180.095657 
	C141.820160,176.047531 139.760986,174.993271 135.669617,176.490463 
	C138.448242,184.290237 141.112854,192.097168 144.079147,199.787750 
	C144.598663,201.134735 146.382843,202.832825 147.587204,202.836166 
	C148.746140,202.839355 150.415924,201.066513 150.981140,199.707870 
	C152.951813,194.970779 154.541153,190.075043 156.606903,184.315399 
	C158.703629,190.383408 160.319916,195.443008 162.257263,200.376511 
	C162.695160,201.491592 164.185593,202.755692 165.309067,202.878860 
	C166.401718,202.998611 168.352921,202.007248 168.711609,201.048859 
	C171.883392,192.574051 174.784302,183.997894 177.762543,175.459442 
	C173.515808,173.951874 171.613205,175.361465 170.594757,179.274673 
	C169.313065,184.199219 167.439407,188.969696 165.533508,194.666534 
	C163.479034,188.585266 161.874298,183.347092 159.880203,178.261566 
	C159.354172,176.920013 157.574020,175.146515 156.464096,175.210388 
	C155.291214,175.277908 153.748245,177.116165 153.212036,178.506775 
	C151.600662,182.685760 150.401047,187.023514 148.826157,192.054276 
M400.398834,181.511749 
	C404.015289,184.142914 404.182800,180.251678 406.078125,178.885864 
	C400.980499,174.649612 395.651276,173.853851 389.899231,175.669769 
	C382.576599,177.981476 378.750275,185.545425 380.865845,193.254181 
	C382.957336,200.875092 389.992096,204.793793 398.499512,203.077011 
	C406.512177,201.460068 408.040588,198.613678 406.346252,188.001358 
	C405.108032,188.001358 403.809906,188.001343 402.511749,188.001358 
	C401.013519,188.001373 399.470032,187.779449 398.031586,188.072769 
	C396.911499,188.301163 395.922211,189.171005 394.874786,189.755783 
	C395.933502,190.550110 396.909332,191.516739 398.079407,192.079620 
	C398.891663,192.470367 399.971161,192.305511 400.875885,192.384079 
	C401.451447,197.209076 398.565430,199.612854 393.729065,198.632095 
	C388.476349,197.566925 385.068420,192.109314 386.400940,186.896637 
	C387.974579,180.740799 392.452240,178.811752 400.398834,181.511749 
M188.273544,186.730118 
	C185.967606,191.986206 183.661682,197.242310 180.788071,203.792374 
	C183.761673,202.895218 186.844086,202.671219 187.042847,201.793900 
	C188.675751,194.586456 194.179184,196.043381 198.891586,196.339447 
	C200.546814,196.443466 203.007462,197.885818 203.521927,199.293793 
	C204.978180,203.279236 207.443451,203.646973 211.224655,202.548370 
	C207.343445,193.805161 203.620682,185.131165 199.625076,176.584717 
	C198.343689,173.843842 194.543442,174.211380 192.983276,177.112717 
	C191.412186,180.034363 190.080933,183.084961 188.273544,186.730118 
M108.571495,188.972351 
	C106.563896,193.474182 104.556305,197.976013 101.983612,203.745026 
	C104.908745,202.852386 107.958611,202.624817 108.157089,201.750198 
	C109.788559,194.560913 115.290268,196.061005 119.967117,196.345184 
	C121.622734,196.445786 124.051300,197.920731 124.603867,199.355026 
	C126.077957,203.181259 128.341324,203.723877 132.058304,202.488861 
	C128.265503,193.969437 124.648293,185.606461 120.754433,177.374359 
	C120.218246,176.240784 118.338135,175.214249 117.027145,175.145172 
	C116.001579,175.091141 114.469643,176.372910 113.900543,177.450745 
	C112.045502,180.964111 110.528671,184.656052 108.571495,188.972351 
M272.937744,96.284767 
	C272.937744,91.059944 272.937744,85.835121 272.937744,80.610306 
	C272.694763,80.613518 272.451782,80.616730 272.208801,80.619942 
	C272.208801,87.875626 272.208801,95.131310 272.208801,102.386993 
	C272.452606,102.390312 272.696442,102.393639 272.940247,102.396957 
	C272.940247,100.663803 272.940247,98.930641 272.937744,96.284767 
M272.938232,144.471405 
	C272.938232,140.509674 272.938232,136.547943 272.938232,132.586227 
	C272.722198,132.590652 272.506195,132.595062 272.290161,132.599487 
	C272.290161,139.845184 272.290161,147.090866 272.290161,154.336548 
	C272.505646,154.339691 272.721130,154.342834 272.936615,154.345978 
	C272.936615,151.377594 272.936615,148.409210 272.938232,144.471405 
M272.938904,114.590042 
	C272.938904,111.969711 272.938904,109.349380 272.938904,106.729050 
	C272.711700,106.744835 272.484467,106.760620 272.257263,106.776398 
	C272.257263,113.657646 272.257263,120.538895 272.257263,127.420143 
	C272.484039,127.422699 272.710846,127.425262 272.937622,127.427826 
	C272.937622,123.469101 272.937622,119.510384 272.938904,114.590042 
z"/>
<path fill="#BF4B1A" opacity="1.000000" stroke="none" 
	d="
M235.283813,287.288025 
	C243.381882,281.209106 251.342667,274.936188 259.604584,269.088806 
	C281.513123,253.582932 304.766968,240.869263 331.695435,236.523788 
	C354.221436,232.888748 376.456024,235.752197 398.587311,240.169052 
	C407.711639,241.990051 416.883636,243.572052 426.619629,245.713806 
	C428.475708,246.103806 429.746185,246.042725 431.016632,245.981628 
	C431.775726,245.972137 432.534851,245.962662 434.006104,246.254562 
	C440.134918,246.191040 445.551544,245.826141 450.968201,245.461227 
	C452.089478,245.297546 453.210724,245.133865 454.917206,245.219681 
	C456.447418,245.193924 457.392395,244.918655 458.337402,244.643402 
	C477.769836,241.116135 494.503265,230.818283 512.640381,223.069733 
	C513.000000,296.687561 513.000000,370.375122 512.605347,444.550293 
	C506.903870,446.342377 501.623535,447.768494 496.285645,448.930359 
	C472.550110,454.096893 448.563599,456.962708 424.274902,458.303986 
	C401.943115,459.537170 379.622040,459.801239 357.613251,456.545624 
	C335.326569,453.248901 313.254700,448.177704 291.315308,442.935486 
	C262.105835,435.956116 234.847336,423.296967 206.963577,412.480774 
	C195.657211,408.095032 184.396210,403.367706 172.737717,400.169617 
	C157.206268,395.909180 141.188995,394.017761 124.991653,394.834656 
	C114.905975,395.343353 104.626060,394.954803 94.791161,396.837860 
	C76.901604,400.263153 59.146992,404.605255 41.586418,409.468719 
	C27.861212,413.270020 14.514750,418.438812 0.999998,423.000000 
	C1.000000,399.979095 1.000000,376.958221 1.456186,353.442017 
	C6.370390,353.292542 10.825891,353.893311 15.286887,353.937378 
	C30.025700,354.082916 44.796028,354.613312 59.497639,353.872437 
	C72.366470,353.223938 85.215096,351.420288 97.964439,349.432831 
	C105.826225,348.207275 113.494232,345.715729 121.231407,343.723358 
	C125.182526,342.705872 129.094391,341.535950 133.425934,340.330658 
	C140.309784,337.833313 146.791702,335.440277 153.601990,333.050720 
	C155.267899,332.485321 156.605438,331.916504 158.315338,331.250122 
	C174.158844,323.524811 189.960587,316.487274 204.988983,308.069122 
	C215.628967,302.109161 225.222900,294.281769 235.283813,287.288025 
M395.973053,291.403778 
	C395.714478,291.205353 395.455933,291.006927 394.908905,290.208252 
	C371.673462,264.956299 331.353882,258.248718 300.782379,274.549316 
	C268.278625,291.880188 252.689468,330.291565 263.102234,366.409058 
	C271.120636,394.221436 300.229675,424.334412 342.967773,420.740112 
	C364.313995,418.944885 383.010956,411.082031 396.916351,393.195526 
	C397.145660,392.966919 397.331299,392.707123 397.825653,392.157379 
	C397.980347,391.769440 398.135040,391.381470 398.289673,390.993500 
	C397.835724,391.306824 397.381805,391.620117 396.437714,392.050354 
	C396.236908,392.309509 396.036133,392.568695 395.191406,393.061890 
	C380.689636,403.506531 364.494110,407.828552 346.994446,404.361694 
	C323.201721,399.648193 307.405151,385.244873 300.738556,361.829376 
	C293.739136,337.244873 299.566711,315.409698 318.003601,297.847015 
	C339.284912,277.574768 367.402771,275.738586 394.786865,291.981934 
	C395.015381,292.185852 395.266113,292.357208 395.812042,292.980133 
	C396.143280,293.108612 396.474487,293.237091 396.805725,293.365570 
	C396.573059,292.872223 396.340393,292.378876 395.973053,291.403778 
M464.036469,366.061249 
	C464.036469,366.061249 463.969391,365.999146 463.905823,365.310089 
	C458.901459,358.062256 453.897095,350.814453 448.711487,343.304169 
	C454.634949,335.469269 460.509735,327.698730 467.094727,318.988831 
	C461.338593,320.644470 456.768677,322.009430 452.169403,323.266846 
	C448.047882,324.393555 443.252075,327.172699 439.933105,325.969543 
	C436.544891,324.741302 434.558594,319.575928 432.021637,316.088348 
	C429.287933,312.330353 426.627411,308.519135 423.393616,303.969543 
	C422.874817,312.164856 422.005798,319.106323 422.144958,326.027527 
	C422.241272,330.817200 420.937378,333.071899 416.103394,334.214325 
	C409.160095,335.855225 402.428314,338.391296 394.392212,340.928558 
	C401.892487,343.771088 407.895020,346.206177 414.007355,348.324493 
	C422.856262,351.391205 421.525208,349.448273 421.363831,359.372498 
	C421.260925,365.702759 421.344604,372.036072 421.344604,379.398560 
	C426.547974,372.754608 431.289581,367.156708 435.477234,361.171265 
	C437.761414,357.906525 439.969116,357.667877 443.381927,358.933014 
	C450.196960,361.459564 457.146240,363.624207 464.036469,366.061249 
z"/>
<path fill="#DB7922" opacity="1.000000" stroke="none" 
	d="
M0.999998,423.468658 
	C14.514750,418.438812 27.861212,413.270020 41.586418,409.468719 
	C59.146992,404.605255 76.901604,400.263153 94.791161,396.837860 
	C104.626060,394.954803 114.905975,395.343353 124.991653,394.834656 
	C141.188995,394.017761 157.206268,395.909180 172.737717,400.169617 
	C184.396210,403.367706 195.657211,408.095032 206.963577,412.480774 
	C234.847336,423.296967 262.105835,435.956116 291.315308,442.935486 
	C313.254700,448.177704 335.326569,453.248901 357.613251,456.545624 
	C379.622040,459.801239 401.943115,459.537170 424.274902,458.303986 
	C448.563599,456.962708 472.550110,454.096893 496.285645,448.930359 
	C501.623535,447.768494 506.903870,446.342377 512.605347,445.018921 
	C513.000000,467.651855 513.000000,490.303711 513.000000,512.939697 
	C342.333313,512.939697 171.666656,512.939697 1.000000,512.939697 
	C1.000000,483.231995 1.000000,453.584656 0.999998,423.468658 
z"/>
<path fill="#EDA93F" opacity="1.000000" stroke="none" 
	d="
M234.811768,287.195831 
	C225.222900,294.281769 215.628967,302.109161 204.988983,308.069122 
	C189.960587,316.487274 174.158844,323.524811 158.243835,330.855835 
	C155.727951,329.751495 153.716537,328.495239 151.574478,328.205780 
	C130.816284,325.400940 110.977165,319.546021 91.795105,311.154510 
	C74.856178,303.744293 56.882935,300.836304 38.517273,299.993408 
	C25.803007,299.409882 13.283550,300.583527 1.000000,304.000000 
	C1.000000,279.312439 1.000000,254.624878 1.000001,229.468658 
	C8.057376,227.983627 15.120922,227.008087 22.170912,225.942825 
	C39.913536,223.261963 57.161011,226.120438 73.659782,232.184265 
	C88.138390,237.505585 102.276176,243.960052 116.069153,250.898712 
	C145.906097,265.908417 176.112579,279.695038 209.548950,284.537567 
	C217.764099,285.727386 226.073624,286.265778 234.811768,287.195831 
z"/>
<path fill="#DD7E24" opacity="1.000000" stroke="none" 
	d="
M1.000000,304.468658 
	C13.283550,300.583527 25.803007,299.409882 38.517273,299.993408 
	C56.882935,300.836304 74.856178,303.744293 91.795105,311.154510 
	C110.977165,319.546021 130.816284,325.400940 151.574478,328.205780 
	C153.716537,328.495239 155.727951,329.751495 157.871490,330.953430 
	C156.605438,331.916504 155.267899,332.485321 153.174286,333.038025 
	C145.953461,335.492920 139.488724,337.963928 133.024002,340.434937 
	C129.094391,341.535950 125.182526,342.705872 121.231407,343.723358 
	C113.494232,345.715729 105.826225,348.207275 97.964439,349.432831 
	C85.215096,351.420288 72.366470,353.223938 59.497639,353.872437 
	C44.796028,354.613312 30.025700,354.082916 15.286887,353.937378 
	C10.825891,353.893311 6.370390,353.292542 1.456186,352.973389 
	C1.000000,336.979095 1.000000,320.958221 1.000000,304.468658 
z"/>
<path fill="#3F2C17" opacity="1.000000" stroke="none" 
	d="
M81.157509,79.036270 
	C81.157509,79.036270 81.604530,79.036369 82.165443,79.311447 
	C91.207489,79.723236 99.688683,79.953743 108.169739,79.949234 
	C111.438644,79.947495 114.707275,79.411644 117.976028,79.119141 
	C137.146423,79.206177 153.214645,90.555893 156.347000,107.626564 
	C161.515289,135.792816 146.347870,155.060959 119.048103,155.707199 
	C107.564835,155.293411 96.866051,155.121078 86.166687,155.069870 
	C84.763664,155.063171 83.357666,155.677246 81.953049,156.003799 
	C81.953049,156.003799 81.503288,156.105942 81.308609,155.577576 
	C81.128448,129.711578 81.142975,104.373924 81.157509,79.036270 
M96.736488,94.636612 
	C96.712875,109.623871 96.688492,124.611130 96.677620,139.598404 
	C96.677528,139.733185 96.858368,139.868088 97.254463,140.393600 
	C97.470596,140.643753 97.716599,140.859909 98.667885,141.524109 
	C105.362633,141.672653 112.057198,141.837479 118.752762,141.916336 
	C119.052071,141.919861 119.360580,141.142365 120.359184,140.390701 
	C124.462990,138.751511 129.143738,137.880447 132.554611,135.318665 
	C140.489578,129.358994 141.781357,120.717239 139.648575,111.546783 
	C137.448181,102.085648 130.863541,96.562027 121.654503,95.199539 
	C113.672577,94.018600 105.461571,94.385994 96.736488,94.636612 
z"/>
<path fill="#3F2C17" opacity="1.000000" stroke="none" 
	d="
M346.748688,151.244431 
	C342.353546,157.904648 333.276978,157.703857 327.675659,150.700424 
	C316.408783,136.613281 305.218719,122.464645 293.573486,107.857010 
	C292.780670,107.170685 292.411377,106.968727 292.042053,106.766777 
	C292.042053,106.766777 292.331329,106.744057 292.155701,106.272285 
	C291.497681,105.211189 291.015350,104.621864 289.939209,103.307014 
	C289.939209,121.447479 289.939209,138.723007 289.939209,155.998535 
	C289.939209,155.998535 290.002319,155.982712 289.748108,156.111053 
	C288.961365,156.451599 288.428802,156.663788 287.896240,156.875977 
	C284.303040,157.093811 280.691650,157.596252 277.126831,157.368973 
	C275.942322,157.293457 274.733917,155.448929 273.823853,154.203186 
	C273.426178,153.658829 273.747864,152.586853 273.747833,151.754486 
	C273.747314,127.648720 273.747375,103.542961 273.747375,78.916000 
	C279.062225,78.916000 284.043213,78.536072 288.912537,79.107407 
	C290.798096,79.328644 292.763885,81.437088 294.126526,83.139320 
	C305.457916,97.294319 316.656769,111.555397 328.306580,126.284302 
	C329.498352,127.542274 330.279205,128.300369 331.076538,129.036942 
	C331.092987,129.015396 331.108551,129.067383 331.172882,129.314026 
	C331.536163,129.713013 331.835083,129.865387 332.353333,129.667175 
	C332.713867,116.904602 332.908844,104.492912 332.980957,92.080505 
	C333.051270,79.980865 332.996155,79.980545 344.992615,80.476868 
	C344.999268,102.460518 344.970673,123.976685 345.053925,145.492432 
	C345.061127,147.352463 345.807739,149.209656 346.348999,151.101135 
	C346.487061,151.134094 346.748688,151.244431 346.748688,151.244431 
z"/>
<path fill="#3F2C17" opacity="1.000000" stroke="none" 
	d="
M398.037903,156.342545 
	C371.023376,150.756760 357.467926,126.161057 367.932587,100.997597 
	C373.620819,87.319626 384.782135,80.665077 399.966675,79.310867 
	C407.112518,79.722000 413.498810,79.997223 419.882385,79.944481 
	C423.920227,79.911133 427.954010,79.388580 431.989624,79.085449 
	C432.243164,83.901199 432.496704,88.716942 432.019623,93.483948 
	C421.626282,93.298210 411.963654,93.149261 402.300415,93.074387 
	C401.965759,93.071793 401.625336,93.808968 401.287567,94.201340 
	C395.804749,95.340767 390.730347,97.236603 386.741180,102.369667 
	C385.883636,103.944695 385.407684,104.999298 384.931732,106.053902 
	C384.931732,106.053902 384.762939,106.166061 384.544708,106.511444 
	C384.150055,107.799881 383.973633,108.742943 383.769775,109.832840 
	C396.345520,109.832840 408.658905,109.832840 420.972290,109.832848 
	C422.001404,110.709137 423.836761,111.516403 423.918732,112.473747 
	C424.255707,116.411118 424.059662,120.394119 424.059662,124.785461 
	C410.731171,124.785461 397.685242,124.785461 384.654480,124.785461 
	C384.457184,132.540649 389.260376,138.490677 397.690918,139.911911 
	C403.525665,140.895569 409.577240,140.677002 415.536133,140.816010 
	C421.167938,140.947357 426.805237,140.844223 433.108765,140.844223 
	C433.108765,145.930710 433.108765,150.832474 432.552795,156.174469 
	C420.677216,156.523987 409.357544,156.433258 398.037903,156.342545 
z"/>
<path fill="#3F2C17" opacity="1.000000" stroke="none" 
	d="
M177.093689,79.016235 
	C177.093689,79.016235 177.562805,78.972908 178.127518,79.263809 
	C181.000763,79.705482 183.332001,80.133278 185.612854,79.946350 
	C189.707718,79.610733 191.177185,81.119904 191.080765,85.310684 
	C190.839798,95.785286 190.923370,106.270393 191.081848,116.748184 
	C191.108414,118.504753 192.162170,120.245789 192.846100,122.313538 
	C193.029770,123.073708 193.108627,123.514328 193.187500,123.954956 
	C195.397461,134.287903 203.566116,141.566101 213.818497,142.336960 
	C223.146347,143.038315 232.648071,135.854828 235.909302,125.030258 
	C236.066772,123.968437 236.151215,123.567474 236.437271,123.141464 
	C236.638885,123.116417 237.029404,123.004776 237.276794,122.672256 
	C237.680511,120.533508 237.964798,118.727829 237.972565,116.920959 
	C238.025391,104.622437 238.019989,92.323654 238.495880,80.018326 
	C240.790970,80.008446 242.623596,79.998131 244.456177,80.003242 
	C250.981155,80.021431 250.991547,80.023415 250.996353,86.663116 
	C251.004578,97.991974 250.956055,109.321144 251.035904,120.649445 
	C251.050766,122.759323 251.556870,124.865746 251.836258,126.973763 
	C250.835220,142.821396 239.102585,155.257492 222.809326,156.854340 
	C216.547760,157.468002 209.927460,157.476364 203.832550,156.126419 
	C189.219482,152.889740 180.693222,143.162186 177.517761,127.780746 
	C177.264175,111.010506 177.178925,95.013367 177.093689,79.016235 
z"/>
<path fill="#3F2D19" opacity="1.000000" stroke="none" 
	d="
M148.933472,191.676788 
	C150.401047,187.023514 151.600662,182.685760 153.212036,178.506775 
	C153.748245,177.116165 155.291214,175.277908 156.464096,175.210388 
	C157.574020,175.146515 159.354172,176.920013 159.880203,178.261566 
	C161.874298,183.347092 163.479034,188.585266 165.533508,194.666534 
	C167.439407,188.969696 169.313065,184.199219 170.594757,179.274673 
	C171.613205,175.361465 173.515808,173.951874 177.762543,175.459442 
	C174.784302,183.997894 171.883392,192.574051 168.711609,201.048859 
	C168.352921,202.007248 166.401718,202.998611 165.309067,202.878860 
	C164.185593,202.755692 162.695160,201.491592 162.257263,200.376511 
	C160.319916,195.443008 158.703629,190.383408 156.606903,184.315399 
	C154.541153,190.075043 152.951813,194.970779 150.981140,199.707870 
	C150.415924,201.066513 148.746140,202.839355 147.587204,202.836166 
	C146.382843,202.832825 144.598663,201.134735 144.079147,199.787750 
	C141.112854,192.097168 138.448242,184.290237 135.669617,176.490463 
	C139.760986,174.993271 141.820160,176.047531 142.831757,180.095657 
	C143.994186,184.747360 145.796326,189.239197 147.465210,194.233215 
	C148.049332,193.298019 148.437744,192.676147 148.933472,191.676788 
z"/>
<path fill="#402E1A" opacity="1.000000" stroke="none" 
	d="
M400.081299,181.325729 
	C392.452240,178.811752 387.974579,180.740799 386.400940,186.896637 
	C385.068420,192.109314 388.476349,197.566925 393.729065,198.632095 
	C398.565430,199.612854 401.451447,197.209076 400.875885,192.384079 
	C399.971161,192.305511 398.891663,192.470367 398.079407,192.079620 
	C396.909332,191.516739 395.933502,190.550110 394.874786,189.755768 
	C395.922211,189.171005 396.911499,188.301163 398.031586,188.072769 
	C399.470032,187.779449 401.013519,188.001373 402.511749,188.001358 
	C403.809906,188.001343 405.108032,188.001358 406.346252,188.001358 
	C408.040588,198.613678 406.512177,201.460068 398.499512,203.077011 
	C389.992096,204.793793 382.957336,200.875092 380.865845,193.254181 
	C378.750275,185.545425 382.576599,177.981476 389.899231,175.669769 
	C395.651276,173.853851 400.980499,174.649612 406.078125,178.885864 
	C404.182800,180.251678 404.015289,184.142914 400.081299,181.325729 
z"/>
<path fill="#402E1A" opacity="1.000000" stroke="none" 
	d="
M188.459076,186.404587 
	C190.080933,183.084961 191.412186,180.034363 192.983276,177.112717 
	C194.543442,174.211380 198.343689,173.843842 199.625076,176.584717 
	C203.620682,185.131165 207.343445,193.805161 211.224655,202.548370 
	C207.443451,203.646973 204.978180,203.279236 203.521927,199.293793 
	C203.007462,197.885818 200.546814,196.443466 198.891586,196.339447 
	C194.179184,196.043381 188.675751,194.586456 187.042847,201.793900 
	C186.844086,202.671219 183.761673,202.895218 180.788071,203.792374 
	C183.661682,197.242310 185.967606,191.986206 188.459076,186.404587 
M195.182663,184.022263 
	C194.099854,186.658249 193.017059,189.294220 191.576675,192.800720 
	C195.493271,191.979950 197.782379,191.500259 200.364716,190.959106 
	C199.148285,188.159592 198.138885,185.750732 197.011276,183.398529 
	C196.917542,183.202988 196.025284,183.390244 195.182663,184.022263 
z"/>
<path fill="#402E1A" opacity="1.000000" stroke="none" 
	d="
M108.726608,188.625824 
	C110.528671,184.656052 112.045502,180.964111 113.900543,177.450745 
	C114.469643,176.372910 116.001579,175.091141 117.027145,175.145172 
	C118.338135,175.214249 120.218246,176.240784 120.754433,177.374359 
	C124.648293,185.606461 128.265503,193.969437 132.058304,202.488861 
	C128.341324,203.723877 126.077957,203.181259 124.603867,199.355026 
	C124.051300,197.920731 121.622734,196.445786 119.967117,196.345184 
	C115.290268,196.061005 109.788559,194.560913 108.157089,201.750198 
	C107.958611,202.624817 104.908745,202.852386 101.983612,203.745026 
	C104.556305,197.976013 106.563896,193.474182 108.726608,188.625824 
M119.208931,191.793732 
	C119.664886,191.124725 120.648659,190.269501 120.489227,189.817596 
	C119.603035,187.305817 118.439339,184.891937 117.006111,181.609863 
	C115.355431,185.604553 114.096703,188.650711 112.438171,192.664429 
	C115.401863,192.435928 116.991211,192.313400 119.208931,191.793732 
z"/>
<path fill="#422E19" opacity="1.000000" stroke="none" 
	d="
M367.003479,202.849640 
	C365.535126,202.064606 363.674744,201.613983 362.668762,200.434586 
	C359.022064,196.159393 355.661987,191.639740 351.355225,186.141830 
	C350.740295,188.618576 350.138275,190.106079 350.044189,191.625015 
	C349.870117,194.436066 349.857727,197.273987 350.033173,200.084778 
	C350.189056,202.581680 349.141876,203.379181 346.409546,202.458069 
	C345.965240,193.087814 345.954041,184.254547 345.942841,175.421280 
	C347.576660,175.973343 349.698303,176.061203 350.750397,177.166809 
	C353.602112,180.163574 355.948853,183.634781 358.604553,186.827393 
	C359.578400,187.998108 360.857788,188.914612 362.997894,190.852859 
	C362.997894,185.988998 362.703186,182.394150 363.143341,178.891647 
	C363.318695,177.496353 365.118958,176.305252 366.590454,175.546509 
	C367.002106,184.997757 367.002777,193.923706 367.003479,202.849640 
z"/>
<path fill="#3F2C18" opacity="1.000000" stroke="none" 
	d="
M223.968933,175.174057 
	C224.641022,176.297577 225.685989,177.352890 225.906677,178.558990 
	C226.350662,180.985580 226.345444,183.494339 226.547348,186.268250 
	C234.298492,184.116058 235.469879,173.066818 245.828857,176.609344 
	C241.635239,179.747101 237.441605,182.884857 233.246994,186.023346 
	C238.187210,192.441071 241.895355,197.258240 245.838882,202.381195 
	C241.502518,203.874252 238.759094,202.834915 236.592987,199.435181 
	C234.815964,196.646103 232.690765,194.078842 230.739197,191.439362 
	C225.484879,193.588104 226.461594,198.051208 225.783600,202.183960 
	C222.564850,202.002182 221.905106,200.333191 221.957947,197.815781 
	C222.082809,191.867462 221.861984,185.909470 222.090240,179.967285 
	C222.152435,178.347870 223.312653,176.770645 223.968933,175.174057 
z"/>
<path fill="#412D18" opacity="1.000000" stroke="none" 
	d="
M289.990936,175.138260 
	C291.640167,175.912430 293.709930,176.298004 294.855408,177.537674 
	C297.668701,180.582291 299.996277,184.069901 302.647552,187.273132 
	C303.583557,188.404053 304.892029,189.226715 307.002625,191.012802 
	C307.002625,186.053696 306.709686,182.416931 307.148682,178.870789 
	C307.321228,177.477142 309.130615,176.286118 310.604340,175.533966 
	C311.017487,184.987885 311.020874,193.910645 311.024292,202.833420 
	C309.514069,202.132507 307.601746,201.796799 306.570251,200.661102 
	C303.666107,197.463669 301.224121,193.850189 298.383514,190.589310 
	C297.431854,189.496841 295.827637,188.972794 294.521698,188.188934 
	C294.014038,189.658844 293.202515,191.101120 293.065704,192.604782 
	C292.825165,195.248520 293.168762,197.947372 292.898712,200.585358 
	C292.810364,201.448196 291.575531,202.193649 290.431213,202.463638 
	C289.995239,193.002411 289.993073,184.070328 289.990936,175.138260 
z"/>
<path fill="#45331F" opacity="1.000000" stroke="none" 
	d="
M273.875214,187.969681 
	C273.914093,188.424881 273.952972,188.880066 273.504089,189.662552 
	C269.850159,189.999207 266.678467,189.917313 263.523376,190.108765 
	C263.003845,190.140305 262.557068,191.371338 262.076660,192.048004 
	C261.555695,193.841110 261.034698,195.634216 260.319550,198.095581 
	C265.032837,198.095581 268.959991,198.262817 272.865753,198.045135 
	C276.277832,197.854980 277.447632,199.104919 276.258789,203.016647 
	C270.293091,203.016647 264.092224,203.016647 257.441467,202.477005 
	C256.982239,193.003204 256.972961,184.069046 256.963715,175.134888 
	C263.378387,175.134888 269.793060,175.134888 276.462524,175.134888 
	C276.462524,176.621582 276.462524,177.869751 276.462524,179.805817 
	C271.421112,180.194946 266.377258,180.584259 260.774078,181.016739 
	C260.955902,182.062637 261.245361,183.727783 261.707397,186.045105 
	C265.878418,187.121429 269.876801,187.545563 273.875214,187.969681 
z"/>
<path fill="#2E1D12" opacity="1.000000" stroke="none" 
	d="
M344.987030,80.009277 
	C332.996155,79.980545 333.051270,79.980865 332.980957,92.080505 
	C332.908844,104.492912 332.713867,116.904602 332.264862,129.421814 
	C331.674225,129.373810 331.391388,129.220596 331.108551,129.067383 
	C331.108551,129.067383 331.092987,129.015396 331.163696,128.571457 
	C331.249878,111.724281 331.265320,95.321045 331.280762,78.917809 
	C335.871765,78.915627 340.462799,78.913445 345.524384,79.222343 
	C345.994965,79.533424 345.952423,80.010162 345.711060,80.008598 
	C345.469727,80.007034 344.987030,80.009277 344.987030,80.009277 
z"/>
<path fill="#312116" opacity="1.000000" stroke="none" 
	d="
M192.741302,121.994003 
	C192.162170,120.245789 191.108414,118.504753 191.081848,116.748184 
	C190.923370,106.270393 190.839798,95.785286 191.080765,85.310684 
	C191.177185,81.119904 189.707718,79.610733 185.612854,79.946350 
	C183.332001,80.133278 181.000763,79.705482 178.355515,79.323029 
	C182.366898,79.025475 186.714996,78.959618 191.565247,79.235458 
	C192.288727,80.059654 192.510056,80.542160 192.790329,81.488358 
	C192.813293,95.299370 192.777298,108.646683 192.741302,121.994003 
z"/>
<path fill="#412D18" opacity="1.000000" stroke="none" 
	d="
M326.988861,175.148727 
	C327.749451,175.099548 328.510071,175.050385 329.638672,175.531036 
	C330.011810,184.988113 330.016968,193.915390 330.022095,202.842682 
	C329.262177,202.896347 328.502289,202.950027 327.368256,202.467361 
	C326.992401,193.003601 326.990631,184.076157 326.988861,175.148727 
z"/>
<path fill="#F8DD97" opacity="1.000000" stroke="none" 
	d="
M80.876846,79.342804 
	C81.142975,104.373924 81.128448,129.711578 81.086464,155.515686 
	C80.709999,154.744263 80.059769,153.507141 80.056587,152.268372 
	C79.996590,128.856644 80.007355,105.444717 80.038139,82.032875 
	C80.039185,81.238121 80.401993,80.443848 80.876846,79.342804 
z"/>
<path fill="#F3DA9C" opacity="1.000000" stroke="none" 
	d="
M346.972076,79.007004 
	C347.313568,80.420326 347.948517,81.832817 347.952545,83.247093 
	C348.012726,104.393303 348.001587,125.539764 347.956848,146.686066 
	C347.954132,147.977097 347.529602,149.267242 347.025024,150.901123 
	C346.748688,151.244431 346.487061,151.134094 346.545074,150.664062 
	C346.665527,126.810188 346.727997,103.426323 346.885498,79.792313 
	C346.977722,79.363777 346.974884,79.185387 346.972076,79.007004 
z"/>
<path fill="#312116" opacity="1.000000" stroke="none" 
	d="
M251.916733,126.512665 
	C251.556870,124.865746 251.050766,122.759323 251.035904,120.649445 
	C250.956055,109.321144 251.004578,97.991974 250.996353,86.663116 
	C250.991547,80.023415 250.981155,80.021431 244.456177,80.003242 
	C242.623596,79.998131 240.790970,80.008446 238.481995,79.786224 
	C238.005600,79.560760 237.980347,79.096970 237.980347,79.096970 
	C239.632080,79.026649 241.283310,78.915009 242.935638,78.895241 
	C245.741104,78.861664 248.547256,78.885994 251.997208,78.885994 
	C251.997208,94.723618 251.997208,110.387596 251.916733,126.512665 
z"/>
<path fill="#FFE29C" opacity="1.000000" stroke="none" 
	d="
M312.123260,174.967804 
	C312.732605,175.859451 313.857483,176.743668 313.870453,177.643890 
	C313.982941,185.445740 313.915955,193.250702 313.822937,201.053787 
	C313.816589,201.587265 313.169312,202.113098 312.620239,202.385803 
	C312.321350,193.075333 312.222321,184.021576 312.123260,174.967804 
z"/>
<path fill="#2E1D12" opacity="1.000000" stroke="none" 
	d="
M367.274902,202.908142 
	C367.002777,193.923706 367.002106,184.997757 367.003265,175.613144 
	C367.356964,175.141815 367.708771,175.129150 368.371368,175.557953 
	C368.671539,184.975464 368.660950,193.951553 368.650330,202.927612 
	C368.282349,202.940628 367.914368,202.953644 367.274902,202.908142 
z"/>
<path fill="#F7DE9C" opacity="1.000000" stroke="none" 
	d="
M331.016785,79.172836 
	C331.265320,95.321045 331.249878,111.724281 331.147247,128.593002 
	C330.279205,128.300369 329.498352,127.542274 328.550293,126.483902 
	C328.921295,124.198524 329.899994,122.218987 329.925201,120.227386 
	C330.074860,108.402390 329.972839,96.574432 330.039917,84.747948 
	C330.049988,82.973297 330.504089,81.201164 331.016785,79.172836 
z"/>
<path fill="#F7DE9C" opacity="1.000000" stroke="none" 
	d="
M290.203033,155.676132 
	C289.939209,138.723007 289.939209,121.447479 289.939209,103.307014 
	C291.015350,104.621864 291.497681,105.211189 292.147644,106.127426 
	C291.876038,108.506821 291.076263,110.555878 291.056763,112.612328 
	C290.938812,125.060936 291.020386,137.511307 290.976013,149.960861 
	C290.969604,151.759064 290.644470,153.556137 290.203033,155.676132 
z"/>
<path fill="#2E1D12" opacity="1.000000" stroke="none" 
	d="
M289.731201,175.104919 
	C289.993073,184.070328 289.995239,193.002411 289.997375,202.393616 
	C289.630768,202.866684 289.264191,202.880646 288.594391,202.457962 
	C288.313690,198.384583 288.336182,194.747818 288.524231,190.997467 
	C288.577850,190.551788 288.465942,190.219696 288.323608,189.431610 
	C288.290405,184.671417 288.287628,180.367203 288.284821,176.062973 
	C288.680359,175.732513 289.075897,175.402054 289.731201,175.104919 
z"/>
<path fill="#F3DA9C" opacity="1.000000" stroke="none" 
	d="
M176.825348,79.333572 
	C177.178925,95.013367 177.264175,111.010506 177.324722,127.472717 
	C176.868881,126.745422 176.069092,125.555016 176.062714,124.360382 
	C175.986603,110.090630 176.021805,95.820221 176.061234,81.550079 
	C176.062988,80.916573 176.384460,80.283951 176.825348,79.333572 
z"/>
<path fill="#FFE29C" opacity="1.000000" stroke="none" 
	d="
M236.235657,123.166512 
	C236.151215,123.567474 236.066772,123.968437 235.889038,124.662338 
	C235.535507,123.522850 235.040421,122.088615 235.051483,120.658302 
	C235.157074,106.992958 235.348343,93.328285 235.757950,79.802963 
	C236.172577,91.700546 236.344254,103.458588 236.516876,115.478256 
	C236.518600,116.088730 236.519363,116.437576 236.335327,117.141930 
	C236.178909,119.387131 236.207291,121.276817 236.235657,123.166512 
z"/>
<path fill="#F7DE9C" opacity="1.000000" stroke="none" 
	d="
M192.846100,122.313538 
	C192.777298,108.646683 192.813293,95.299370 192.894806,81.162239 
	C192.948883,79.916824 192.957443,79.461227 192.965988,79.005623 
	C193.291199,79.744972 193.902283,80.485489 193.899261,81.223495 
	C193.841995,95.232353 193.712280,109.240913 193.392563,123.602249 
	C193.108627,123.514328 193.029770,123.073708 192.846100,122.313538 
z"/>
<path fill="#231407" opacity="1.000000" stroke="none" 
	d="
M236.520111,116.786423 
	C236.519363,116.437576 236.518600,116.088730 236.691345,115.022453 
	C236.937973,102.549591 237.011063,90.794151 237.084167,79.038719 
	C237.084167,79.038719 237.540298,78.946121 237.760315,79.021545 
	C237.980347,79.096970 238.005600,79.560760 238.019501,79.792862 
	C238.019989,92.323654 238.025391,104.622437 237.972565,116.920959 
	C237.964798,118.727829 237.680511,120.533508 237.265259,122.224144 
	C236.844269,120.334511 236.682190,118.560463 236.520111,116.786423 
z"/>
<path fill="#EED39C" opacity="1.000000" stroke="none" 
	d="
M420.621643,109.620949 
	C408.658905,109.832840 396.345520,109.832840 383.769775,109.832840 
	C383.973633,108.742943 384.150055,107.799881 384.589539,106.602310 
	C386.545898,107.232224 388.213196,108.821533 389.936737,108.885033 
	C400.040894,109.257309 410.158142,109.273064 420.621643,109.620949 
z"/>
<path fill="#231407" opacity="1.000000" stroke="none" 
	d="
M81.864548,156.035797 
	C83.357666,155.677246 84.763664,155.063171 86.166687,155.069870 
	C96.866051,155.121078 107.564835,155.293411 118.606674,155.649857 
	C118.949562,155.871658 118.533661,156.077240 117.844971,156.058762 
	C105.378716,156.110168 93.601143,156.180054 81.823570,156.249939 
	C81.823570,156.249939 81.776047,156.067810 81.864548,156.035797 
z"/>
<path fill="#FFE29C" opacity="1.000000" stroke="none" 
	d="
M117.980301,157.002792 
	C116.577080,157.333313 115.172066,157.956223 113.770912,157.947678 
	C103.403877,157.884399 93.037613,157.695419 82.798691,157.287613 
	C94.610954,157.020432 106.295631,157.011612 117.980301,157.002792 
z"/>
<path fill="#877F67" opacity="1.000000" stroke="none" 
	d="
M118.020538,156.806061 
	C106.295631,157.011612 94.610954,157.020432 82.457314,157.053650 
	C81.988342,157.078049 81.832397,156.678711 81.827988,156.464325 
	C93.601143,156.180054 105.378716,156.110168 117.622513,156.124481 
	C118.088737,156.208694 118.060768,156.609329 118.020538,156.806061 
z"/>
<path fill="#887D5F" opacity="1.000000" stroke="none" 
	d="
M236.819016,79.003838 
	C237.011063,90.794151 236.937973,102.549591 236.690399,114.760818 
	C236.344254,103.458588 236.172577,91.700546 236.010605,79.474510 
	C236.198151,78.993988 236.376007,78.981476 236.819016,79.003838 
z"/>
<path fill="#291C13" opacity="1.000000" stroke="none" 
	d="
M117.514786,79.038139 
	C114.707275,79.411644 111.438644,79.947495 108.169739,79.949234 
	C99.688683,79.953743 91.207489,79.723236 82.382553,79.364555 
	C93.710342,79.080780 105.381943,79.018959 117.514786,79.038139 
z"/>
<path fill="#FFE29C" opacity="1.000000" stroke="none" 
	d="
M398.294983,156.690582 
	C409.357544,156.433258 420.677216,156.523987 432.460083,156.609222 
	C431.922455,157.060760 430.925110,157.905334 429.920105,157.914597 
	C420.206024,158.004059 410.490509,157.972839 400.775940,157.903488 
	C400.032623,157.898193 399.293243,157.339874 398.294983,156.690582 
z"/>
<path fill="#312116" opacity="1.000000" stroke="none" 
	d="
M223.536865,175.104736 
	C223.312653,176.770645 222.152435,178.347870 222.090240,179.967285 
	C221.861984,185.909470 222.082809,191.867462 221.957947,197.815781 
	C221.905106,200.333191 222.564850,202.002182 225.594849,202.502899 
	C224.445374,202.810654 222.983261,202.935440 221.021576,203.102844 
	C221.021576,194.177216 220.976913,185.560287 221.111450,176.946152 
	C221.121567,176.299026 222.410385,175.671860 223.536865,175.104736 
z"/>
<path fill="#291C13" opacity="1.000000" stroke="none" 
	d="
M401.737610,94.217422 
	C401.625336,93.808968 401.965759,93.071793 402.300415,93.074387 
	C411.963654,93.149261 421.626282,93.298210 431.631409,93.661880 
	C422.045074,94.003540 412.116394,94.118515 401.737610,94.217422 
z"/>
<path fill="#291C13" opacity="1.000000" stroke="none" 
	d="
M431.527161,79.005432 
	C427.954010,79.388580 423.920227,79.911133 419.882385,79.944481 
	C413.498810,79.997223 407.112518,79.722000 400.380981,79.366745 
	C410.377991,79.073753 420.721375,78.999588 431.527161,79.005432 
z"/>
<path fill="#938563" opacity="1.000000" stroke="none" 
	d="
M330.885284,175.090759 
	C331.196686,175.256958 331.508087,175.423172 331.919250,176.288116 
	C331.972992,185.657364 331.926941,194.327881 331.880890,202.998398 
	C331.708923,202.996704 331.536926,202.995026 331.161682,202.487335 
	C330.934052,193.017807 330.909668,184.054291 330.885284,175.090759 
z"/>
<path fill="#FFE29C" opacity="1.000000" stroke="none" 
	d="
M368.957031,202.643311 
	C368.660950,193.951553 368.671539,184.975464 368.638855,175.536743 
	C368.989716,175.590851 369.731995,176.111633 369.726074,176.623779 
	C369.627350,185.202835 369.435120,193.780777 368.957031,202.643311 
z"/>
<path fill="#231407" opacity="1.000000" stroke="none" 
	d="
M330.666931,175.054688 
	C330.909668,184.054291 330.934052,193.017807 330.907745,202.442001 
	C330.857056,202.902664 330.432983,202.965210 330.227539,202.903931 
	C330.016968,193.915390 330.011810,184.988113 330.015045,175.601395 
	C330.023407,175.141953 330.448547,175.018631 330.666931,175.054688 
z"/>
<path fill="#231407" opacity="1.000000" stroke="none" 
	d="
M311.845459,174.996033 
	C312.222321,184.021576 312.321350,193.075333 312.286621,202.584137 
	C311.963104,203.013931 311.773407,202.988663 311.303986,202.898407 
	C311.020874,193.910645 311.017487,184.987885 311.018433,175.605927 
	C311.204376,175.105927 311.386017,175.065094 311.845459,174.996033 
z"/>
<path fill="#271B0F" opacity="1.000000" stroke="none" 
	d="
M326.568451,175.271820 
	C326.990631,184.076157 326.992401,193.003601 326.993591,202.389862 
	C326.622131,202.246094 325.927765,201.642838 325.929016,201.041031 
	C325.946808,192.492218 326.058807,183.943588 326.568451,175.271820 
z"/>
<path fill="#231407" opacity="1.000000" stroke="none" 
	d="
M256.761292,175.079666 
	C256.972961,184.069046 256.982239,193.003204 256.976624,202.396576 
	C256.961731,202.855789 256.560181,202.971878 256.300110,202.485474 
	C256.074280,193.026031 256.108582,184.053024 256.142853,175.080002 
	C256.142853,175.080002 256.558838,175.024445 256.761292,175.079666 
z"/>
<path fill="#A0926A" opacity="1.000000" stroke="none" 
	d="
M255.884583,175.042297 
	C256.108582,184.053024 256.074280,193.026031 256.092560,202.460968 
	C255.966232,202.949371 255.787338,202.975876 255.319244,202.533752 
	C255.054779,193.042542 255.079544,184.019974 255.104324,174.997391 
	C255.278305,174.999771 255.452301,175.002167 255.884583,175.042297 
z"/>
<path fill="#FBD892" opacity="1.000000" stroke="none" 
	d="
M254.836044,175.318695 
	C255.079544,184.019974 255.054779,193.042542 255.047974,202.534103 
	C254.709503,199.627670 254.077591,196.253860 254.058136,192.876511 
	C254.025040,187.132172 254.377396,181.385620 254.836044,175.318695 
z"/>
<path fill="#FFE29C" opacity="1.000000" stroke="none" 
	d="
M287.983887,176.351471 
	C288.287628,180.367203 288.290405,184.671417 288.222717,189.737946 
	C288.221100,190.703842 288.289886,190.907455 288.358704,191.111069 
	C288.336182,194.747818 288.313690,198.384583 288.315887,202.475571 
	C287.901978,201.910782 287.072968,200.886398 287.086823,199.873581 
	C287.193115,192.127777 287.463531,184.384232 287.983887,176.351471 
z"/>
<path fill="#FBD892" opacity="1.000000" stroke="none" 
	d="
M332.153412,202.680634 
	C331.926941,194.327881 331.972992,185.657364 332.058655,176.525116 
	C332.207489,184.829895 332.316711,193.596390 332.153412,202.680634 
z"/>
<path fill="#231407" opacity="1.000000" stroke="none" 
	d="
M345.592621,175.733215 
	C345.954041,184.254547 345.965240,193.087814 345.975983,202.379211 
	C345.608521,202.407181 344.919220,201.974792 344.922180,201.547195 
	C344.980988,193.046173 345.119781,184.545731 345.592621,175.733215 
z"/>
<path fill="#FBD892" opacity="1.000000" stroke="none" 
	d="
M272.938995,96.741127 
	C272.940247,98.930641 272.940247,100.663803 272.940247,102.396957 
	C272.696442,102.393639 272.452606,102.390312 272.208801,102.386993 
	C272.208801,95.131310 272.208801,87.875626 272.208801,80.619942 
	C272.451782,80.616730 272.694763,80.613518 272.937744,80.610306 
	C272.937744,85.835121 272.937744,91.059944 272.938995,96.741127 
z"/>
<path fill="#FBD892" opacity="1.000000" stroke="none" 
	d="
M272.937439,144.956116 
	C272.936615,148.409210 272.936615,151.377594 272.936615,154.345978 
	C272.721130,154.342834 272.505646,154.339691 272.290161,154.336548 
	C272.290161,147.090866 272.290161,139.845184 272.290161,132.599487 
	C272.506195,132.595062 272.722198,132.590652 272.938232,132.586227 
	C272.938232,136.547943 272.938232,140.509674 272.937439,144.956116 
z"/>
<path fill="#231407" opacity="1.000000" stroke="none" 
	d="
M262.526184,192.033417 
	C262.557068,191.371338 263.003845,190.140305 263.523376,190.108765 
	C266.678467,189.917313 269.850159,189.999207 273.473083,190.004883 
	C272.046692,190.682144 270.206390,191.568634 268.267456,191.939270 
	C266.560852,192.265472 264.743927,192.014755 262.526184,192.033417 
z"/>
<path fill="#FBD892" opacity="1.000000" stroke="none" 
	d="
M272.938263,115.070854 
	C272.937622,119.510384 272.937622,123.469101 272.937622,127.427826 
	C272.710846,127.425262 272.484039,127.422699 272.257263,127.420143 
	C272.257263,120.538895 272.257263,113.657646 272.257263,106.776398 
	C272.484467,106.760620 272.711700,106.744835 272.938904,106.729050 
	C272.938904,109.349380 272.938904,111.969711 272.938263,115.070854 
z"/>
<path fill="#231407" opacity="1.000000" stroke="none" 
	d="
M273.782837,187.578751 
	C269.876801,187.545563 265.878418,187.121429 261.929474,186.390167 
	C265.882782,186.451294 269.786652,186.819565 273.782837,187.578751 
z"/>
<path fill="#B73E12" opacity="1.000000" stroke="none" 
	d="
M450.503418,245.525665 
	C445.551544,245.826141 440.134918,246.191040 434.380066,246.326660 
	C439.374146,245.928284 444.706390,245.759201 450.503418,245.525665 
z"/>
<path fill="#EED39C" opacity="1.000000" stroke="none" 
	d="
M385.236084,105.857086 
	C385.407684,104.999298 385.883636,103.944695 386.640961,102.671341 
	C386.461731,103.521820 386.001099,104.591049 385.236084,105.857086 
z"/>
<path fill="#B73E12" opacity="1.000000" stroke="none" 
	d="
M430.592377,245.887787 
	C429.746185,246.042725 428.475708,246.103806 426.933136,245.910431 
	C427.830048,245.701981 428.999084,245.747955 430.592377,245.887787 
z"/>
<path fill="#B73E12" opacity="1.000000" stroke="none" 
	d="
M457.913757,244.614410 
	C457.392395,244.918655 456.447418,245.193924 455.262024,245.259857 
	C455.844421,244.895508 456.667267,244.740479 457.913757,244.614410 
z"/>
<path fill="#F7DE9C" opacity="1.000000" stroke="none" 
	d="
M288.099274,157.051666 
	C288.428802,156.663788 288.961365,156.451599 289.733337,156.082092 
	C289.415894,156.358963 288.859100,156.793167 288.099274,157.051666 
z"/>
<path fill="#574831" opacity="1.000000" stroke="none" 
	d="
M192.718018,78.966949 
	C192.957443,79.461227 192.948883,79.916824 192.835846,80.698547 
	C192.510056,80.542160 192.288727,80.059654 192.023758,79.307213 
	C192.143448,79.000931 192.306763,78.964600 192.718018,78.966949 
z"/>
<path fill="#F7DE9C" opacity="1.000000" stroke="none" 
	d="
M292.248352,107.004913 
	C292.411377,106.968727 292.780670,107.170685 293.326111,107.662247 
	C293.153046,107.715591 292.803864,107.479324 292.248352,107.004913 
z"/>
<path fill="#50412A" opacity="1.000000" stroke="none" 
	d="
M346.722473,78.972595 
	C346.974884,79.185387 346.977722,79.363777 346.675781,79.790314 
	C346.370972,80.038475 345.952423,80.010162 345.952423,80.010162 
	C345.952423,80.010162 345.994965,79.533424 345.988861,79.294556 
	C346.146149,79.016510 346.309509,78.977341 346.722473,78.972595 
z"/>
<path fill="#EED39C" opacity="1.000000" stroke="none" 
	d="
M394.461151,291.662750 
	C367.402771,275.738586 339.284912,277.574768 318.003601,297.847015 
	C299.566711,315.409698 293.739136,337.244873 300.738556,361.829376 
	C307.405151,385.244873 323.201721,399.648193 346.994446,404.361694 
	C364.494110,407.828552 380.689636,403.506531 395.692383,393.121796 
	C396.316864,393.295166 396.440399,393.408661 396.563934,393.522186 
	C383.010956,411.082031 364.313995,418.944885 342.967773,420.740112 
	C300.229675,424.334412 271.120636,394.221436 263.102234,366.409058 
	C252.689468,330.291565 268.278625,291.880188 300.782379,274.549316 
	C331.353882,258.248718 371.673462,264.956299 394.863159,290.716858 
	C394.698669,291.371216 394.579895,291.516968 394.461151,291.662750 
z"/>
<path fill="#EED39C" opacity="1.000000" stroke="none" 
	d="
M464.040070,365.938293 
	C457.146240,363.624207 450.196960,361.459564 443.381927,358.933014 
	C439.969116,357.667877 437.761414,357.906525 435.477234,361.171265 
	C431.289581,367.156708 426.547974,372.754608 421.344604,379.398560 
	C421.344604,372.036072 421.260925,365.702759 421.363831,359.372498 
	C421.525208,349.448273 422.856262,351.391205 414.007355,348.324493 
	C407.895020,346.206177 401.892487,343.771088 394.392212,340.928558 
	C402.428314,338.391296 409.160095,335.855225 416.103394,334.214325 
	C420.937378,333.071899 422.241272,330.817200 422.144958,326.027527 
	C422.005798,319.106323 422.874817,312.164856 423.393616,303.969543 
	C426.627411,308.519135 429.287933,312.330353 432.021637,316.088348 
	C434.558594,319.575928 436.544891,324.741302 439.933105,325.969543 
	C443.252075,327.172699 448.047882,324.393555 452.169403,323.266846 
	C456.768677,322.009430 461.338593,320.644470 467.094727,318.988831 
	C460.509735,327.698730 454.634949,335.469269 448.711487,343.304169 
	C453.897095,350.814453 458.901459,358.062256 463.957336,365.641937 
	C464.008820,365.973785 464.040070,365.938293 464.040070,365.938293 
z"/>
<path fill="#E49332" opacity="1.000000" stroke="none" 
	d="
M133.425934,340.330658 
	C139.488724,337.963928 145.953461,335.492920 152.845901,333.034576 
	C146.791702,335.440277 140.309784,337.833313 133.425934,340.330658 
z"/>
<path fill="#EED39C" opacity="1.000000" stroke="none" 
	d="
M396.927856,391.933441 
	C397.381805,391.620117 397.835724,391.306824 398.289673,390.993500 
	C398.135040,391.381470 397.980347,391.769440 397.513672,392.165466 
	C397.201691,392.173584 396.927856,391.933441 396.927856,391.933441 
z"/>
<path fill="#EED39C" opacity="1.000000" stroke="none" 
	d="
M396.107727,291.885559 
	C396.340393,292.378876 396.573059,292.872223 396.805725,293.365570 
	C396.474487,293.237091 396.143280,293.108612 395.818909,292.586548 
	C395.825775,292.192993 396.107727,291.885559 396.107727,291.885559 
z"/>
<path fill="#EED39C" opacity="1.000000" stroke="none" 
	d="
M395.682434,292.344543 
	C395.266113,292.357208 395.015381,292.185852 394.624023,291.822327 
	C394.579895,291.516968 394.698669,291.371216 395.007385,291.016968 
	C395.455933,291.006927 395.714478,291.205353 396.040405,291.644653 
	C396.107727,291.885559 395.825775,292.192993 395.682434,292.344543 
z"/>
<path fill="#EED39C" opacity="1.000000" stroke="none" 
	d="
M463.989105,365.986450 
	C463.969391,365.999146 464.036469,366.061249 464.038269,365.999756 
	C464.040070,365.938293 464.008820,365.973785 463.989105,365.986450 
z"/>
<path fill="#EED39C" opacity="1.000000" stroke="none" 
	d="
M397.337524,392.294861 
	C397.331299,392.707123 397.145660,392.966919 396.740143,393.358856 
	C396.440399,393.408661 396.316864,393.295166 396.014343,393.004791 
	C396.036133,392.568695 396.236908,392.309509 396.682800,391.991882 
	C396.927856,391.933441 397.201691,392.173584 397.337524,392.294861 
z"/>
<path fill="#ECCA89" opacity="1.000000" stroke="none" 
	d="
M97.992485,141.042068 
	C97.716599,140.859909 97.470596,140.643753 97.162247,139.731674 
	C97.163963,124.069519 97.257889,109.069283 97.351814,94.069054 
	C105.461571,94.385994 113.672577,94.018600 121.654503,95.199539 
	C130.863541,96.562027 137.448181,102.085648 139.648575,111.546783 
	C141.781357,120.717239 140.489578,129.358994 132.554611,135.318665 
	C129.143738,137.880447 124.462990,138.751511 119.565002,140.534271 
	C111.844711,140.799240 104.918602,140.920654 97.992485,141.042068 
z"/>
<path fill="#271B0F" opacity="1.000000" stroke="none" 
	d="
M97.044151,94.352829 
	C97.257889,109.069283 97.163963,124.069519 97.012383,139.536346 
	C96.858368,139.868088 96.677528,139.733185 96.677620,139.598404 
	C96.688492,124.611130 96.712875,109.623871 97.044151,94.352829 
z"/>
<path fill="#291C13" opacity="1.000000" stroke="none" 
	d="
M98.330185,141.283081 
	C104.918602,140.920654 111.844711,140.799240 119.217819,140.703247 
	C119.360580,141.142365 119.052071,141.919861 118.752762,141.916336 
	C112.057198,141.837479 105.362633,141.672653 98.330185,141.283081 
z"/>
<path fill="#332113" opacity="1.000000" stroke="none" 
	d="
M345.711060,80.008598 
	C345.952423,80.010162 346.370972,80.038475 346.580688,80.040466 
	C346.727997,103.426323 346.665527,126.810188 346.406982,150.631104 
	C345.807739,149.209656 345.061127,147.352463 345.053925,145.492432 
	C344.970673,123.976685 344.999268,102.460518 344.992615,80.476868 
	C344.987030,80.009277 345.469727,80.007034 345.711060,80.008598 
z"/>
<path fill="#5B4C34" opacity="1.000000" stroke="none" 
	d="
M331.172882,129.314026 
	C331.391388,129.220596 331.674225,129.373810 332.045532,129.772385 
	C331.835083,129.865387 331.536163,129.713013 331.172882,129.314026 
z"/>
<path fill="#887D5F" opacity="1.000000" stroke="none" 
	d="
M236.335327,117.141930 
	C236.682190,118.560463 236.844269,120.334511 237.017883,122.556664 
	C237.029404,123.004776 236.638885,123.116417 236.437271,123.141464 
	C236.207291,121.276817 236.178909,119.387131 236.335327,117.141930 
z"/>
<path fill="#D2BA85" opacity="1.000000" stroke="none" 
	d="
M195.343353,183.710938 
	C196.025284,183.390244 196.917542,183.202988 197.011276,183.398529 
	C198.138885,185.750732 199.148285,188.159592 200.364716,190.959106 
	C197.782379,191.500259 195.493271,191.979950 191.576675,192.800720 
	C193.017059,189.294220 194.099854,186.658249 195.343353,183.710938 
z"/>
<path fill="#D2BA85" opacity="1.000000" stroke="none" 
	d="
M118.894745,191.992310 
	C116.991211,192.313400 115.401863,192.435928 112.438171,192.664429 
	C114.096703,188.650711 115.355431,185.604553 117.006111,181.609863 
	C118.439339,184.891937 119.603035,187.305817 120.489227,189.817596 
	C120.648659,190.269501 119.664886,191.124725 118.894745,191.992310 
z"/>
<path fill="#77664A" opacity="1.000000" stroke="none" 
	d="
M288.524231,190.997467 
	C288.289886,190.907455 288.221100,190.703842 288.253174,190.193909 
	C288.465942,190.219696 288.577850,190.551788 288.524231,190.997467 
z"/>
</svg>